<svg height="100px" width="100px" fill="#1A1A1A" xmlns="http://www.w3.org/2000/svg" xmlns:xlink="http://www.w3.org/1999/xlink" version="1.1" x="0px" y="0px" viewBox="0 0 100 100" style="enable-background:new 0 0 100 100;" xml:space="preserve">
	<g>
		<path d="M33.1,31.5c0,9.3,7.6,16.9,16.9,16.9s16.9-7.6,16.9-16.9c0-9.3-7.6-16.9-16.9-16.9S33.1,22.1,33.1,31.5z M62.9,31.5   c0,7.1-5.8,12.9-12.9,12.9s-12.9-5.8-12.9-12.9c0-7.1,5.8-12.9,12.9-12.9S62.9,24.4,62.9,31.5z">
		</path>
		<path d="M20.3,84.4h59.5c1.1,0,2-0.9,2-2c0-17.5-14.2-31.8-31.8-31.8S18.3,64.9,18.3,82.4C18.3,83.5,19.1,84.4,20.3,84.4z M50,54.7   c14.6,0,26.7,11.4,27.7,25.8H22.3C23.3,66.1,35.4,54.7,50,54.7z">
		</path>
	</g>
</svg>
