<?xml version="1.0" encoding="UTF-8" standalone="no"?>
<!DOCTYPE svg PUBLIC "-//W3C//DTD SVG 1.1//EN" "http://www.w3.org/Graphics/SVG/1.1/DTD/svg11.dtd">
<svg width="100%" height="100%" viewBox="0 0 100 100" version="1.1" xmlns="http://www.w3.org/2000/svg" xmlns:xlink="http://www.w3.org/1999/xlink" xml:space="preserve" xmlns:serif="http://www.serif.com/" style="fill-rule:evenodd;clip-rule:evenodd;stroke-linejoin:round;stroke-miterlimit:1.41421;">
	<g transform="matrix(1,0,0,1,11.5488,-952.354)">
		<path d="M57.149,968.893C56.632,968.906 56.138,969.119 55.774,969.487L7.681,1017.58C7.371,1017.89 7.173,1018.3 7.118,1018.74L5.024,1033.55C5.013,1033.64 5.007,1033.72 5.007,1033.81C5.007,1034.91 5.91,1035.81 7.007,1035.81C7.086,1035.81 7.165,1035.81 7.243,1035.8L22.118,1033.71C22.544,1033.64 22.938,1033.45 23.243,1033.14L71.337,985.05C72.094,984.267 72.08,983.003 71.306,982.237L58.618,969.487C58.374,969.249 58.073,969.076 57.743,968.987C57.551,968.926 57.351,968.895 57.149,968.893L57.149,968.893ZM57.181,973.737L67.087,983.643L64.243,986.487L54.337,976.581L57.181,973.737ZM51.524,979.425L61.431,989.3L20.899,1029.83L9.337,1031.49L10.993,1019.96L51.524,979.425L51.524,979.425Z" style="fill:rgb(26,26,26);fill-rule:nonzero;" />
	</g>
</svg>
