<svg height="100px" width="100px" fill="#1A1A1A" xmlns:dc="http://purl.org/dc/elements/1.1/" xmlns:cc="http://creativecommons.org/ns#" xmlns:rdf="http://www.w3.org/1999/02/22-rdf-syntax-ns#" xmlns:svg="http://www.w3.org/2000/svg" xmlns="http://www.w3.org/2000/svg" xmlns:sodipodi="http://sodipodi.sourceforge.net/DTD/sodipodi-0.dtd" xmlns:inkscape="http://www.inkscape.org/namespaces/inkscape" version="1.1" x="0px" y="0px" viewBox="0 0 100 100">
	<g transform="translate(0,-952.36218)">
		<path style="text-indent:0;text-transform:none;direction:ltr;block-progression:tb;baseline-shift:baseline;color:#000000;enable-background:accumulate;" d="m 55.75,980.27525 a 2.0002,2.0002 0 0 0 -1.6562,1.4375 l -12,40.00005 a 2.0002,2.0002 0 1 0 3.8124,1.1562 l 12,-40 A 2.0002,2.0002 0 0 0 55.75,980.27525 z m -19.8438,3 a 2.0001999,2.0001999 0 0 0 -1.375,0.65625 l -16.000001,17 a 2.0001999,2.0001999 0 0 0 0,2.7188 l 16.000001,17 a 2.001335,2.001335 0 0 0 2.9376,-2.7188 L 22.75,1002.3065 37.4688,986.65025 a 2.0001999,2.0001999 0 0 0 -1.5626,-3.375 z m 27.9376,0 a 2.0001999,2.0001999 0 0 0 -1.3126,3.375 l 14.7188,15.65625 -14.7188,15.625 a 2.001335,2.001335 0 1 0 2.9376,2.7188 l 16,-17 a 2.0001999,2.0001999 0 0 0 0,-2.7188 l -16,-17 a 2.0001999,2.0001999 0 0 0 -1.625,-0.65625 z" fill="#1A1A1A" fill-opacity="1" stroke="none" marker="none" visibility="visible" display="inline" overflow="visible">
		</path>
	</g>
</svg>
